<svg width="289" height="627" viewBox="0 0 289 627" fill="none" xmlns="http://www.w3.org/2000/svg">
<path d="M21.8625 29.2148L21.5301 31.7085L6.96941 29.7675L9.64399 9.7036L23.8034 11.5911L23.471 14.0847L12.1778 12.5793L11.3564 18.7418L21.417 20.0829L21.0922 22.5193L11.0316 21.1782L10.1681 27.6559L21.8625 29.2148Z" fill="white"/>
<path d="M48.5502 19.1506L41.7699 17.6706L37.9899 34.9886L35.2213 34.3843L39.0013 17.0663L32.2493 15.5926L32.7857 13.1347L49.0867 16.6927L48.5502 19.1506Z" fill="white"/>
<path d="M66.5186 21.6667C69.0239 22.4391 70.8105 23.6456 71.8782 25.286C72.9459 26.9265 73.156 28.7967 72.5085 30.8968C71.861 32.9969 70.6342 34.4241 68.8282 35.1785C67.0221 35.9329 64.8664 35.9239 62.361 35.1515L57.5805 33.6776L55.7744 39.5357L53.0111 38.6837L58.9748 19.3408L66.5186 21.6667ZM63.0193 32.7219C64.7694 33.2614 66.2185 33.3048 67.3668 32.8519C68.5208 32.3806 69.3136 31.4449 69.7453 30.0448C70.1769 28.6448 70.0458 27.4343 69.3519 26.4135C68.6637 25.3742 67.4445 24.5848 65.6945 24.0452L60.9969 22.5968L58.3217 31.2735L63.0193 32.7219Z" fill="white"/>
<path d="M85.5557 50.3369C83.6702 49.5491 82.1424 48.4303 80.9724 46.9804C79.8098 45.5126 79.0974 43.8674 78.8352 42.0447C78.5908 40.2294 78.844 38.4235 79.5946 36.627C80.3452 34.8304 81.4521 33.3813 82.9153 32.2794C84.3963 31.185 86.0637 30.5446 87.9175 30.3581C89.7787 30.1538 91.6521 30.4455 93.5375 31.2333C95.4052 32.0137 96.9203 33.1377 98.083 34.6054C99.253 36.0554 99.9602 37.688 100.205 39.5033C100.456 41.3008 100.203 43.1067 99.4452 44.921C98.6872 46.7353 97.5766 48.1934 96.1134 49.2952C94.6576 50.3792 92.9991 51.0234 91.1378 51.2277C89.2841 51.4142 87.4233 51.1173 85.5557 50.3369ZM86.5478 47.9623C87.9174 48.5346 89.2748 48.7361 90.62 48.5669C91.9829 48.4051 93.2023 47.9118 94.2782 47.0868C95.3793 46.2516 96.2123 45.158 96.7771 43.8062C97.342 42.4544 97.5309 41.1021 97.3439 39.7496C97.1821 38.3866 96.6799 37.1635 95.8372 36.0802C95.0123 35.0043 93.915 34.1802 92.5454 33.6079C91.1757 33.0357 89.8006 32.8267 88.4199 32.9811C87.0569 33.1428 85.8249 33.6414 84.7238 34.4766C83.6479 35.3015 82.8275 36.3899 82.2627 37.7418C81.6978 39.0936 81.4963 40.451 81.6581 41.8139C81.8451 43.1665 82.36 44.3844 83.2026 45.4678C84.0631 46.5585 85.1782 47.3901 86.5478 47.9623Z" fill="white"/>
<path d="M122.461 65.5691L119.147 71.6666L116.784 70.3824L118.897 66.4952L104.263 58.5415L102.125 62.4148L99.7618 61.1306L103.101 55.0469L103.965 55.5164C105.12 56.0562 106.386 55.6036 107.764 54.1584C109.151 52.6962 110.738 50.443 112.524 47.3987L115.809 41.779L128.309 48.5728L119.844 64.1468L122.461 65.5691ZM114.635 48.8425C113.188 51.3032 111.857 53.2676 110.643 54.7356C109.445 56.2129 108.328 57.0761 107.293 57.3253L117.329 62.7798L124.592 49.4161L116.792 45.1769L114.635 48.8425Z" fill="white"/>
<path d="M140.585 55.9795L142.948 57.5957L134.132 70.4838L152.829 64.3545L155.025 65.8565L143.597 82.5632L141.258 80.9633L150.057 68.0991L131.353 74.1882L129.157 72.6862L140.585 55.9795Z" fill="white"/>
<path d="M160.017 95.91C158.467 94.6085 157.349 93.0913 156.665 91.3586C156.007 89.6234 155.826 87.8604 156.121 86.0696C156.429 84.264 157.215 82.6082 158.48 81.1023C159.744 79.5964 161.233 78.543 162.945 77.9421C164.67 77.3265 166.446 77.2059 168.271 77.5804C170.108 77.9401 171.802 78.7708 173.352 80.0723C174.563 81.0888 175.497 82.2251 176.153 83.4814C176.823 84.7229 177.177 86.0398 177.216 87.4321L174.605 87.6187C174.468 85.414 173.528 83.5803 171.786 82.1177C170.634 81.1508 169.377 80.5353 168.013 80.2711C166.649 80.0069 165.317 80.1093 164.017 80.5784C162.744 81.0452 161.636 81.8396 160.694 82.9616C159.752 84.0837 159.155 85.3193 158.903 86.6685C158.679 88.0154 158.815 89.3376 159.311 90.6353C159.807 91.9329 160.631 93.0652 161.783 94.032C163.51 95.4823 165.485 96.0832 167.707 95.8347L167.975 98.4385C166.597 98.6407 165.225 98.5209 163.86 98.079C162.509 97.6495 161.228 96.9265 160.017 95.91Z" fill="white"/>
<path d="M184.508 106.124L181.536 103.126L175.211 109.396L173.216 107.384L187.591 93.1332L189.586 95.1457L183.343 101.334L186.356 104.374L197.078 102.703L199.256 104.9L187.205 106.668L185.125 119.397L182.804 117.056L184.508 106.124Z" fill="white"/>
<path d="M196.427 132.997C195.135 131.414 194.315 129.707 193.966 127.877C193.632 126.035 193.779 124.248 194.407 122.517C195.047 120.8 196.121 119.327 197.629 118.096C199.138 116.865 200.797 116.109 202.607 115.826C204.429 115.559 206.202 115.78 207.924 116.489C209.662 117.186 211.177 118.326 212.469 119.909C213.749 121.478 214.555 123.183 214.889 125.025C215.238 126.856 215.092 128.629 214.452 130.345C213.827 132.049 212.753 133.523 211.23 134.766C209.706 136.009 208.039 136.771 206.229 137.054C204.435 137.324 202.668 137.111 200.93 136.414C199.207 135.705 197.706 134.566 196.427 132.997ZM198.421 131.371C199.359 132.521 200.461 133.338 201.727 133.823C203.006 134.322 204.314 134.462 205.652 134.241C207.016 134.023 208.266 133.451 209.402 132.525C210.537 131.599 211.341 130.495 211.813 129.214C212.313 127.936 212.446 126.62 212.213 125.268C211.993 123.93 211.413 122.686 210.475 121.536C209.536 120.386 208.422 119.554 207.131 119.039C205.853 118.54 204.532 118.399 203.167 118.617C201.829 118.837 200.593 119.41 199.457 120.337C198.322 121.263 197.505 122.365 197.005 123.643C196.533 124.925 196.413 126.241 196.646 127.594C196.891 128.962 197.482 130.22 198.421 131.371Z" fill="white"/>
<path d="M231.522 150.8L227.644 145.045L212.945 154.951L211.361 152.601L226.06 142.695L222.198 136.964L224.284 135.558L233.608 149.394L231.522 150.8Z" fill="white"/>
<path d="M230.614 179.597L228.419 180.827L221.24 168.011L238.9 158.119L245.881 170.581L243.686 171.811L238.118 161.871L232.694 164.91L237.654 173.764L235.51 174.966L230.55 166.111L224.848 169.305L230.614 179.597Z" fill="white"/>
<path d="M243.813 192.375L242.08 188.525L233.959 192.18L232.796 189.596L251.254 181.289L252.417 183.874L244.401 187.481L246.157 191.384L256.784 193.578L258.054 196.399L246.148 193.83L239.738 205.022L238.385 202.016L243.813 192.375Z" fill="white"/>
<path d="M251.881 223.85L248.398 213.672L242.89 213.204L241.925 210.386L264.044 212.505L264.971 215.213L248.798 230.467L247.815 227.595L251.881 223.85ZM253.742 222.143L261.712 214.8L250.915 213.881L253.742 222.143Z" fill="white"/>
<path d="M251.024 239.582C250.886 239.06 250.944 238.566 251.199 238.099C251.472 237.628 251.888 237.318 252.447 237.169C252.988 237.025 253.484 237.093 253.937 237.371C254.409 237.645 254.714 238.042 254.853 238.564C254.992 239.086 254.931 239.57 254.671 240.019C254.411 240.467 254.002 240.765 253.443 240.914C252.884 241.062 252.369 241 251.897 240.726C251.449 240.466 251.158 240.085 251.024 239.582Z" fill="white"/>
<path d="M275.515 255.044C276.02 257.617 275.802 259.762 274.862 261.478C273.921 263.195 272.373 264.265 270.216 264.688C268.06 265.111 266.222 264.705 264.703 263.47C263.184 262.236 262.172 260.332 261.668 257.76L260.705 252.851L254.689 254.03L254.133 251.193L273.996 247.298L275.515 255.044ZM264.12 257.19C264.472 258.988 265.119 260.285 266.062 261.082C267.023 261.876 268.222 262.132 269.66 261.85C271.098 261.568 272.102 260.88 272.673 259.786C273.263 258.688 273.382 257.24 273.03 255.443L272.084 250.619L263.174 252.367L264.12 257.19Z" fill="white"/>
<path d="M280.402 290.694L262.873 283.484C261.476 282.913 260.401 282.182 259.649 281.291C258.897 280.401 258.462 279.39 258.344 278.259C258.252 277.377 258.359 276.455 258.665 275.492L261.044 276C260.869 276.735 260.811 277.381 260.869 277.937C261.001 279.202 261.781 280.177 263.209 280.861L263.977 281.246L278.401 271.54L278.722 274.618L266.635 282.48L280.104 287.847L280.402 290.694Z" fill="white"/>
<path d="M266.136 316.528C266.145 315.795 266.403 315.172 266.911 314.658C267.418 314.163 268.057 313.92 268.828 313.929C269.561 313.938 270.174 314.206 270.669 314.733C271.183 315.26 271.436 315.88 271.427 316.593C271.418 317.306 271.151 317.91 270.624 318.405C270.116 318.919 269.496 319.172 268.764 319.163C267.993 319.153 267.36 318.885 266.865 318.359C266.37 317.851 266.127 317.241 266.136 316.528Z" fill="white"/>
<path d="M268.181 356.377C267.678 357.691 266.961 358.637 266.029 359.215C265.115 359.815 264.007 360.029 262.708 359.858C260.968 359.63 259.705 358.813 258.917 357.407C258.127 356.02 257.891 354.113 258.21 351.685L259.414 342.511L279.483 345.145L278.351 353.775C278.062 355.973 277.388 357.624 276.33 358.73C275.287 359.857 273.935 360.311 272.272 360.093C271.182 359.95 270.292 359.551 269.6 358.896C268.906 358.261 268.433 357.421 268.181 356.377ZM270.28 346.824L269.546 352.415C269.363 353.81 269.501 354.907 269.96 355.706C270.417 356.525 271.18 357.004 272.25 357.144C273.321 357.285 274.182 357.019 274.834 356.346C275.505 355.676 275.931 354.653 276.112 353.277L276.846 347.686L270.28 346.824ZM260.482 351.925C260.078 355.003 261.023 356.692 263.317 356.993C264.464 357.143 265.356 356.862 265.994 356.148C266.649 355.457 267.077 354.346 267.277 352.817L268.101 346.538L261.306 345.646L260.482 351.925Z" fill="white"/>
<path d="M253.219 377.52C253.668 375.546 254.506 373.858 255.734 372.457C256.977 371.079 258.462 370.112 260.19 369.556C261.936 369.004 263.768 368.947 265.686 369.383C267.603 369.819 269.22 370.661 270.538 371.91C271.874 373.162 272.793 374.686 273.294 376.48C273.814 378.279 273.85 380.165 273.401 382.139C273.05 383.681 272.466 385.03 271.649 386.189C270.851 387.352 269.842 388.269 268.622 388.94L267.262 386.704C269.16 385.573 270.361 383.899 270.866 381.681C271.199 380.215 271.172 378.815 270.783 377.481C270.394 376.147 269.694 375.009 268.683 374.068C267.686 373.149 266.473 372.527 265.044 372.202C263.616 371.877 262.244 371.911 260.929 372.304C259.628 372.72 258.514 373.445 257.587 374.48C256.66 375.515 256.03 376.765 255.696 378.231C255.196 380.431 255.564 382.462 256.801 384.325L254.608 385.753C253.798 384.62 253.278 383.345 253.046 381.929C252.811 380.531 252.868 379.061 253.219 377.52Z" fill="white"/>
<path d="M246.902 409.251L244.509 408.476L249.034 394.501L268.291 400.737L263.89 414.327L261.497 413.552L265.007 402.713L259.092 400.798L255.965 410.454L253.627 409.697L256.754 400.041L250.536 398.027L246.902 409.251Z" fill="white"/>
<path d="M252.26 436.701L256.271 427.094L239.903 420.291L241.006 417.65L259.685 425.449L254.571 437.697L252.26 436.701Z" fill="white"/>
<path d="M225.269 456.433L219.13 453.197L220.384 450.818L224.298 452.881L232.064 438.147L228.163 436.058L229.417 433.679L235.543 436.941L235.085 437.81C234.56 438.972 235.029 440.232 236.491 441.592C237.971 442.96 240.244 444.518 243.311 446.265L248.972 449.478L242.339 462.063L226.658 453.798L225.269 456.433ZM241.894 448.395C239.415 446.979 237.434 445.673 235.951 444.477C234.458 443.298 233.581 442.193 233.319 441.161L227.993 451.266L241.448 458.358L245.587 450.504L241.894 448.395Z" fill="white"/>
<path d="M215.182 476.973L221.109 467.996L218.113 463.35L219.754 460.864L231.595 479.667L230.018 482.056L208.059 478.576L209.732 476.043L215.182 476.973ZM217.67 477.403L228.353 479.224L222.482 470.116L217.67 477.403Z" fill="white"/>
<path d="M197.796 522.754L182.694 509.276L184.581 507.162L197.806 518.964L205.623 510.205L192.398 498.402L194.304 496.267L209.406 509.744L197.796 522.754Z" fill="white"/>
<path d="M182.787 537.405C180.864 539.187 178.925 540.129 176.971 540.232C175.016 540.335 173.292 539.58 171.798 537.968C170.305 536.356 169.684 534.579 169.935 532.638C170.186 530.697 171.274 528.836 173.197 527.054L176.867 523.654L172.7 519.157L174.821 517.192L188.578 532.04L182.787 537.405ZM174.97 528.84C173.627 530.085 172.864 531.318 172.681 532.538C172.511 533.773 172.924 534.928 173.919 536.003C174.915 537.078 176.029 537.57 177.26 537.481C178.504 537.406 179.798 536.746 181.141 535.501L184.747 532.16L178.576 525.5L174.97 528.84Z" fill="white"/>
<path d="M148.433 546.194L156.97 539.649L155.658 534.278L158.021 532.466L163.063 554.107L160.791 555.849L141.178 545.381L143.587 543.533L148.433 546.194ZM150.644 547.414L160.144 552.628L157.574 542.101L150.644 547.414Z" fill="white"/>
<path d="M131.026 564.578C129.766 564.965 128.602 564.983 127.535 564.632C126.479 564.297 125.631 563.625 124.991 562.615C124.352 561.605 124.115 560.512 124.282 559.334C124.443 558.182 124.931 557.062 125.748 555.975C126.56 554.913 127.592 553.985 128.846 553.191C129.986 552.469 131.226 551.923 132.567 551.554C133.907 551.184 135.258 551.047 136.619 551.143L136.909 553.492C135.789 553.381 134.672 553.472 133.558 553.767C132.444 554.062 131.414 554.508 130.47 555.106C129.102 555.973 128.134 556.985 127.567 558.143C127.01 559.317 127.051 560.409 127.691 561.419C128.237 562.282 129.005 562.72 129.994 562.732C130.994 562.761 132.129 562.373 133.399 561.569L137.21 559.155L138.463 561.134L134.823 563.439C133.732 564.13 133.024 564.886 132.7 565.708C132.37 566.556 132.458 567.379 132.963 568.177C133.531 569.072 134.378 569.528 135.506 569.544C136.635 569.56 137.809 569.181 139.031 568.407C139.829 567.902 140.571 567.272 141.257 566.518C141.927 565.774 142.484 564.942 142.928 564.022L144.978 565.53C144.425 566.565 143.745 567.509 142.939 568.362C142.132 569.215 141.249 569.946 140.288 570.554C139.083 571.318 137.857 571.832 136.61 572.097C135.363 572.362 134.219 572.322 133.179 571.976C132.123 571.641 131.29 570.993 130.682 570.033C130.135 569.169 129.9 568.257 129.976 567.297C130.035 566.346 130.386 565.44 131.026 564.578Z" fill="white"/>
<path d="M97.5308 573.718L94.3677 567.541L96.7613 566.315L98.7778 570.253L113.603 562.661L111.612 558.71L114.006 557.485L117.143 563.675L116.268 564.123C115.171 564.772 114.83 566.072 115.245 568.025C115.669 569.996 116.634 572.577 118.139 575.77L120.924 581.653L108.261 588.138L100.182 572.36L97.5308 573.718ZM115.755 576.698C114.541 574.115 113.67 571.907 113.144 570.076C112.601 568.253 112.518 566.845 112.896 565.85L102.73 571.055L109.662 584.594L117.564 580.548L115.755 576.698Z" fill="white"/>
<path d="M79.0335 600.407L71.6579 581.557L74.3507 580.504L77.6381 588.905L88.4633 584.669L85.1759 576.268L87.8687 575.214L95.2443 594.064L92.5515 595.118L89.38 587.012L78.5548 591.248L81.7263 599.353L79.0335 600.407Z" fill="white"/>
<path d="M66.4858 604.62L63.7275 605.386L59.5491 590.341L52.1927 608.589L49.6294 609.301L44.213 589.798L46.9435 589.04L51.1141 604.057L58.5061 585.829L61.0694 585.117L66.4858 604.62Z" fill="white"/>
<path d="M26.9622 602.42L31.1201 601.689L29.5765 592.917L32.3675 592.426L35.8754 612.361L33.0845 612.852L31.5611 604.195L27.3462 604.937L22.6043 614.697L19.5571 615.233L24.9779 604.326L15.7074 595.358L18.954 594.787L26.9622 602.42Z" fill="white"/>
</svg>
